<svg xmlns="http://www.w3.org/2000/svg" width="860" height="480" viewBox="0 0 860 480" font-family="monospace" font-size="11">
  <title>Potentiometers</title>
  <rect width="860" height="480" fill="white" stroke="none"/>
  <rect x="10" y="10" width="700" height="24" fill="#e8e8f0" stroke="#666" stroke-width="1.5"/>
  <text x="20" y="28" text-anchor="start" font-size="12" font-weight="bold" fill="#000">2 · Potentiometers  (7× 10kΩ linear, Alpha RV09)</text>
  <line x1="28" y1="70" x2="28" y2="62" stroke="#000" stroke-width="1.5"/>
  <line x1="16" y1="62" x2="40" y2="62" stroke="#000" stroke-width="2"/>
  <text x="28" y="56" text-anchor="middle" font-size="9" font-weight="normal" fill="#000">+3V3</text>
  <rect x="20" y="80" width="50" height="100" fill="#f0f0ff" stroke="#000" stroke-width="1.5"/>
  <text x="45" y="118" text-anchor="middle" font-size="9" font-weight="bold" fill="#000">RV1</text>
  <text x="45" y="132" text-anchor="middle" font-size="9" font-weight="normal" fill="#000">TIME</text>
  <text x="45" y="146" text-anchor="middle" font-size="8" font-weight="normal" fill="#000">10kΩ lin</text>
  <line x1="45" y1="70" x2="45" y2="80" stroke="#000" stroke-width="1.5"/>
  <line x1="45" y1="180" x2="45" y2="200" stroke="#000" stroke-width="1.5"/>
  <line x1="45" y1="200" x2="45" y2="208" stroke="#000" stroke-width="1.5"/>
  <line x1="33" y1="208" x2="57" y2="208" stroke="#000" stroke-width="2"/>
  <line x1="37" y1="213" x2="53" y2="213" stroke="#000" stroke-width="1.5"/>
  <line x1="41" y1="218" x2="49" y2="218" stroke="#000" stroke-width="1.5"/>
  <line x1="20" y1="130" x2="0" y2="130" stroke="#000" stroke-width="1.5"/>
  <line x1="0" y1="130" x2="0" y2="137.0" stroke="#000" stroke-width="1.5"/>
  <rect x="-6" y="137.0" width="12" height="56.0" fill="white" stroke="#000" stroke-width="1.5"/>
  <line x1="0" y1="193.0" x2="0" y2="200" stroke="#000" stroke-width="1.5"/>
  <text x="13" y="167" text-anchor="middle" font-size="8" font-weight="normal" fill="#000">R1</text>
  <text x="13" y="179" text-anchor="middle" font-size="8" font-weight="normal" fill="#000">1kΩ</text>
  <circle cx="0" cy="200" r="3" fill="#000" stroke="#000" stroke-width="1.5"/>
  <line x1="0" y1="200" x2="0" y2="221.0" stroke="#000" stroke-width="1.5"/>
  <line x1="-10" y1="221.0" x2="10" y2="221.0" stroke="#000" stroke-width="1.5"/>
  <line x1="-10" y1="229.0" x2="10" y2="229.0" stroke="#000" stroke-width="1.5"/>
  <line x1="0" y1="229.0" x2="0" y2="250" stroke="#000" stroke-width="1.5"/>
  <text x="13" y="227" text-anchor="middle" font-size="8" font-weight="normal" fill="#000">C5</text>
  <text x="13" y="239" text-anchor="middle" font-size="8" font-weight="normal" fill="#000">100nF</text>
  <line x1="0" y1="250" x2="0" y2="258" stroke="#000" stroke-width="1.5"/>
  <line x1="-12" y1="258" x2="12" y2="258" stroke="#000" stroke-width="2"/>
  <line x1="-8" y1="263" x2="8" y2="263" stroke="#000" stroke-width="1.5"/>
  <line x1="-4" y1="268" x2="4" y2="268" stroke="#000" stroke-width="1.5"/>
  <line x1="0" y1="200" x2="-30" y2="200" stroke="#000" stroke-width="1.5"/>
  <text x="-32" y="197" text-anchor="end" font-size="9" font-weight="normal" fill="#000">→ ADC0</text>
  <line x1="143" y1="70" x2="143" y2="62" stroke="#000" stroke-width="1.5"/>
  <line x1="131" y1="62" x2="155" y2="62" stroke="#000" stroke-width="2"/>
  <text x="143" y="56" text-anchor="middle" font-size="9" font-weight="normal" fill="#000">+3V3</text>
  <rect x="135" y="80" width="50" height="100" fill="#f0f0ff" stroke="#000" stroke-width="1.5"/>
  <text x="160" y="118" text-anchor="middle" font-size="9" font-weight="bold" fill="#000">RV2</text>
  <text x="160" y="132" text-anchor="middle" font-size="9" font-weight="normal" fill="#000">REPEATS</text>
  <text x="160" y="146" text-anchor="middle" font-size="8" font-weight="normal" fill="#000">10kΩ lin</text>
  <line x1="160" y1="70" x2="160" y2="80" stroke="#000" stroke-width="1.5"/>
  <line x1="160" y1="180" x2="160" y2="200" stroke="#000" stroke-width="1.5"/>
  <line x1="160" y1="200" x2="160" y2="208" stroke="#000" stroke-width="1.5"/>
  <line x1="148" y1="208" x2="172" y2="208" stroke="#000" stroke-width="2"/>
  <line x1="152" y1="213" x2="168" y2="213" stroke="#000" stroke-width="1.5"/>
  <line x1="156" y1="218" x2="164" y2="218" stroke="#000" stroke-width="1.5"/>
  <line x1="135" y1="130" x2="115" y2="130" stroke="#000" stroke-width="1.5"/>
  <line x1="115" y1="130" x2="115" y2="137.0" stroke="#000" stroke-width="1.5"/>
  <rect x="109" y="137.0" width="12" height="56.0" fill="white" stroke="#000" stroke-width="1.5"/>
  <line x1="115" y1="193.0" x2="115" y2="200" stroke="#000" stroke-width="1.5"/>
  <text x="128" y="167" text-anchor="middle" font-size="8" font-weight="normal" fill="#000">R2</text>
  <text x="128" y="179" text-anchor="middle" font-size="8" font-weight="normal" fill="#000">1kΩ</text>
  <circle cx="115" cy="200" r="3" fill="#000" stroke="#000" stroke-width="1.5"/>
  <line x1="115" y1="200" x2="115" y2="221.0" stroke="#000" stroke-width="1.5"/>
  <line x1="105" y1="221.0" x2="125" y2="221.0" stroke="#000" stroke-width="1.5"/>
  <line x1="105" y1="229.0" x2="125" y2="229.0" stroke="#000" stroke-width="1.5"/>
  <line x1="115" y1="229.0" x2="115" y2="250" stroke="#000" stroke-width="1.5"/>
  <text x="128" y="227" text-anchor="middle" font-size="8" font-weight="normal" fill="#000">C6</text>
  <text x="128" y="239" text-anchor="middle" font-size="8" font-weight="normal" fill="#000">100nF</text>
  <line x1="115" y1="250" x2="115" y2="258" stroke="#000" stroke-width="1.5"/>
  <line x1="103" y1="258" x2="127" y2="258" stroke="#000" stroke-width="2"/>
  <line x1="107" y1="263" x2="123" y2="263" stroke="#000" stroke-width="1.5"/>
  <line x1="111" y1="268" x2="119" y2="268" stroke="#000" stroke-width="1.5"/>
  <line x1="115" y1="200" x2="85" y2="200" stroke="#000" stroke-width="1.5"/>
  <text x="83" y="197" text-anchor="end" font-size="9" font-weight="normal" fill="#000">→ ADC1</text>
  <line x1="258" y1="70" x2="258" y2="62" stroke="#000" stroke-width="1.5"/>
  <line x1="246" y1="62" x2="270" y2="62" stroke="#000" stroke-width="2"/>
  <text x="258" y="56" text-anchor="middle" font-size="9" font-weight="normal" fill="#000">+3V3</text>
  <rect x="250" y="80" width="50" height="100" fill="#f0f0ff" stroke="#000" stroke-width="1.5"/>
  <text x="275" y="118" text-anchor="middle" font-size="9" font-weight="bold" fill="#000">RV3</text>
  <text x="275" y="132" text-anchor="middle" font-size="9" font-weight="normal" fill="#000">MIX</text>
  <text x="275" y="146" text-anchor="middle" font-size="8" font-weight="normal" fill="#000">10kΩ lin</text>
  <line x1="275" y1="70" x2="275" y2="80" stroke="#000" stroke-width="1.5"/>
  <line x1="275" y1="180" x2="275" y2="200" stroke="#000" stroke-width="1.5"/>
  <line x1="275" y1="200" x2="275" y2="208" stroke="#000" stroke-width="1.5"/>
  <line x1="263" y1="208" x2="287" y2="208" stroke="#000" stroke-width="2"/>
  <line x1="267" y1="213" x2="283" y2="213" stroke="#000" stroke-width="1.5"/>
  <line x1="271" y1="218" x2="279" y2="218" stroke="#000" stroke-width="1.5"/>
  <line x1="250" y1="130" x2="230" y2="130" stroke="#000" stroke-width="1.5"/>
  <line x1="230" y1="130" x2="230" y2="137.0" stroke="#000" stroke-width="1.5"/>
  <rect x="224" y="137.0" width="12" height="56.0" fill="white" stroke="#000" stroke-width="1.5"/>
  <line x1="230" y1="193.0" x2="230" y2="200" stroke="#000" stroke-width="1.5"/>
  <text x="243" y="167" text-anchor="middle" font-size="8" font-weight="normal" fill="#000">R3</text>
  <text x="243" y="179" text-anchor="middle" font-size="8" font-weight="normal" fill="#000">1kΩ</text>
  <circle cx="230" cy="200" r="3" fill="#000" stroke="#000" stroke-width="1.5"/>
  <line x1="230" y1="200" x2="230" y2="221.0" stroke="#000" stroke-width="1.5"/>
  <line x1="220" y1="221.0" x2="240" y2="221.0" stroke="#000" stroke-width="1.5"/>
  <line x1="220" y1="229.0" x2="240" y2="229.0" stroke="#000" stroke-width="1.5"/>
  <line x1="230" y1="229.0" x2="230" y2="250" stroke="#000" stroke-width="1.5"/>
  <text x="243" y="227" text-anchor="middle" font-size="8" font-weight="normal" fill="#000">C7</text>
  <text x="243" y="239" text-anchor="middle" font-size="8" font-weight="normal" fill="#000">100nF</text>
  <line x1="230" y1="250" x2="230" y2="258" stroke="#000" stroke-width="1.5"/>
  <line x1="218" y1="258" x2="242" y2="258" stroke="#000" stroke-width="2"/>
  <line x1="222" y1="263" x2="238" y2="263" stroke="#000" stroke-width="1.5"/>
  <line x1="226" y1="268" x2="234" y2="268" stroke="#000" stroke-width="1.5"/>
  <line x1="230" y1="200" x2="200" y2="200" stroke="#000" stroke-width="1.5"/>
  <text x="198" y="197" text-anchor="end" font-size="9" font-weight="normal" fill="#000">→ ADC2</text>
  <line x1="373" y1="70" x2="373" y2="62" stroke="#000" stroke-width="1.5"/>
  <line x1="361" y1="62" x2="385" y2="62" stroke="#000" stroke-width="2"/>
  <text x="373" y="56" text-anchor="middle" font-size="9" font-weight="normal" fill="#000">+3V3</text>
  <rect x="365" y="80" width="50" height="100" fill="#f0f0ff" stroke="#000" stroke-width="1.5"/>
  <text x="390" y="118" text-anchor="middle" font-size="9" font-weight="bold" fill="#000">RV4</text>
  <text x="390" y="132" text-anchor="middle" font-size="9" font-weight="normal" fill="#000">FILTER</text>
  <text x="390" y="146" text-anchor="middle" font-size="8" font-weight="normal" fill="#000">10kΩ lin</text>
  <line x1="390" y1="70" x2="390" y2="80" stroke="#000" stroke-width="1.5"/>
  <line x1="390" y1="180" x2="390" y2="200" stroke="#000" stroke-width="1.5"/>
  <line x1="390" y1="200" x2="390" y2="208" stroke="#000" stroke-width="1.5"/>
  <line x1="378" y1="208" x2="402" y2="208" stroke="#000" stroke-width="2"/>
  <line x1="382" y1="213" x2="398" y2="213" stroke="#000" stroke-width="1.5"/>
  <line x1="386" y1="218" x2="394" y2="218" stroke="#000" stroke-width="1.5"/>
  <line x1="365" y1="130" x2="345" y2="130" stroke="#000" stroke-width="1.5"/>
  <line x1="345" y1="130" x2="345" y2="137.0" stroke="#000" stroke-width="1.5"/>
  <rect x="339" y="137.0" width="12" height="56.0" fill="white" stroke="#000" stroke-width="1.5"/>
  <line x1="345" y1="193.0" x2="345" y2="200" stroke="#000" stroke-width="1.5"/>
  <text x="358" y="167" text-anchor="middle" font-size="8" font-weight="normal" fill="#000">R4</text>
  <text x="358" y="179" text-anchor="middle" font-size="8" font-weight="normal" fill="#000">1kΩ</text>
  <circle cx="345" cy="200" r="3" fill="#000" stroke="#000" stroke-width="1.5"/>
  <line x1="345" y1="200" x2="345" y2="221.0" stroke="#000" stroke-width="1.5"/>
  <line x1="335" y1="221.0" x2="355" y2="221.0" stroke="#000" stroke-width="1.5"/>
  <line x1="335" y1="229.0" x2="355" y2="229.0" stroke="#000" stroke-width="1.5"/>
  <line x1="345" y1="229.0" x2="345" y2="250" stroke="#000" stroke-width="1.5"/>
  <text x="358" y="227" text-anchor="middle" font-size="8" font-weight="normal" fill="#000">C8</text>
  <text x="358" y="239" text-anchor="middle" font-size="8" font-weight="normal" fill="#000">100nF</text>
  <line x1="345" y1="250" x2="345" y2="258" stroke="#000" stroke-width="1.5"/>
  <line x1="333" y1="258" x2="357" y2="258" stroke="#000" stroke-width="2"/>
  <line x1="337" y1="263" x2="353" y2="263" stroke="#000" stroke-width="1.5"/>
  <line x1="341" y1="268" x2="349" y2="268" stroke="#000" stroke-width="1.5"/>
  <line x1="345" y1="200" x2="315" y2="200" stroke="#000" stroke-width="1.5"/>
  <text x="313" y="197" text-anchor="end" font-size="9" font-weight="normal" fill="#000">→ ADC3</text>
  <line x1="488" y1="70" x2="488" y2="62" stroke="#000" stroke-width="1.5"/>
  <line x1="476" y1="62" x2="500" y2="62" stroke="#000" stroke-width="2"/>
  <text x="488" y="56" text-anchor="middle" font-size="9" font-weight="normal" fill="#000">+3V3</text>
  <rect x="480" y="80" width="50" height="100" fill="#f0f0ff" stroke="#000" stroke-width="1.5"/>
  <text x="505" y="118" text-anchor="middle" font-size="9" font-weight="bold" fill="#000">RV5</text>
  <text x="505" y="132" text-anchor="middle" font-size="9" font-weight="normal" fill="#000">GRIT</text>
  <text x="505" y="146" text-anchor="middle" font-size="8" font-weight="normal" fill="#000">10kΩ lin</text>
  <line x1="505" y1="70" x2="505" y2="80" stroke="#000" stroke-width="1.5"/>
  <line x1="505" y1="180" x2="505" y2="200" stroke="#000" stroke-width="1.5"/>
  <line x1="505" y1="200" x2="505" y2="208" stroke="#000" stroke-width="1.5"/>
  <line x1="493" y1="208" x2="517" y2="208" stroke="#000" stroke-width="2"/>
  <line x1="497" y1="213" x2="513" y2="213" stroke="#000" stroke-width="1.5"/>
  <line x1="501" y1="218" x2="509" y2="218" stroke="#000" stroke-width="1.5"/>
  <line x1="480" y1="130" x2="460" y2="130" stroke="#000" stroke-width="1.5"/>
  <line x1="460" y1="130" x2="460" y2="137.0" stroke="#000" stroke-width="1.5"/>
  <rect x="454" y="137.0" width="12" height="56.0" fill="white" stroke="#000" stroke-width="1.5"/>
  <line x1="460" y1="193.0" x2="460" y2="200" stroke="#000" stroke-width="1.5"/>
  <text x="473" y="167" text-anchor="middle" font-size="8" font-weight="normal" fill="#000">R5</text>
  <text x="473" y="179" text-anchor="middle" font-size="8" font-weight="normal" fill="#000">1kΩ</text>
  <circle cx="460" cy="200" r="3" fill="#000" stroke="#000" stroke-width="1.5"/>
  <line x1="460" y1="200" x2="460" y2="221.0" stroke="#000" stroke-width="1.5"/>
  <line x1="450" y1="221.0" x2="470" y2="221.0" stroke="#000" stroke-width="1.5"/>
  <line x1="450" y1="229.0" x2="470" y2="229.0" stroke="#000" stroke-width="1.5"/>
  <line x1="460" y1="229.0" x2="460" y2="250" stroke="#000" stroke-width="1.5"/>
  <text x="473" y="227" text-anchor="middle" font-size="8" font-weight="normal" fill="#000">C9</text>
  <text x="473" y="239" text-anchor="middle" font-size="8" font-weight="normal" fill="#000">100nF</text>
  <line x1="460" y1="250" x2="460" y2="258" stroke="#000" stroke-width="1.5"/>
  <line x1="448" y1="258" x2="472" y2="258" stroke="#000" stroke-width="2"/>
  <line x1="452" y1="263" x2="468" y2="263" stroke="#000" stroke-width="1.5"/>
  <line x1="456" y1="268" x2="464" y2="268" stroke="#000" stroke-width="1.5"/>
  <line x1="460" y1="200" x2="430" y2="200" stroke="#000" stroke-width="1.5"/>
  <text x="428" y="197" text-anchor="end" font-size="9" font-weight="normal" fill="#000">→ ADC4</text>
  <line x1="603" y1="70" x2="603" y2="62" stroke="#000" stroke-width="1.5"/>
  <line x1="591" y1="62" x2="615" y2="62" stroke="#000" stroke-width="2"/>
  <text x="603" y="56" text-anchor="middle" font-size="9" font-weight="normal" fill="#000">+3V3</text>
  <rect x="595" y="80" width="50" height="100" fill="#f0f0ff" stroke="#000" stroke-width="1.5"/>
  <text x="620" y="118" text-anchor="middle" font-size="9" font-weight="bold" fill="#000">RV6</text>
  <text x="620" y="132" text-anchor="middle" font-size="9" font-weight="normal" fill="#000">MOD SPD</text>
  <text x="620" y="146" text-anchor="middle" font-size="8" font-weight="normal" fill="#000">10kΩ lin</text>
  <line x1="620" y1="70" x2="620" y2="80" stroke="#000" stroke-width="1.5"/>
  <line x1="620" y1="180" x2="620" y2="200" stroke="#000" stroke-width="1.5"/>
  <line x1="620" y1="200" x2="620" y2="208" stroke="#000" stroke-width="1.5"/>
  <line x1="608" y1="208" x2="632" y2="208" stroke="#000" stroke-width="2"/>
  <line x1="612" y1="213" x2="628" y2="213" stroke="#000" stroke-width="1.5"/>
  <line x1="616" y1="218" x2="624" y2="218" stroke="#000" stroke-width="1.5"/>
  <line x1="595" y1="130" x2="575" y2="130" stroke="#000" stroke-width="1.5"/>
  <line x1="575" y1="130" x2="575" y2="137.0" stroke="#000" stroke-width="1.5"/>
  <rect x="569" y="137.0" width="12" height="56.0" fill="white" stroke="#000" stroke-width="1.5"/>
  <line x1="575" y1="193.0" x2="575" y2="200" stroke="#000" stroke-width="1.5"/>
  <text x="588" y="167" text-anchor="middle" font-size="8" font-weight="normal" fill="#000">R6</text>
  <text x="588" y="179" text-anchor="middle" font-size="8" font-weight="normal" fill="#000">1kΩ</text>
  <circle cx="575" cy="200" r="3" fill="#000" stroke="#000" stroke-width="1.5"/>
  <line x1="575" y1="200" x2="575" y2="221.0" stroke="#000" stroke-width="1.5"/>
  <line x1="565" y1="221.0" x2="585" y2="221.0" stroke="#000" stroke-width="1.5"/>
  <line x1="565" y1="229.0" x2="585" y2="229.0" stroke="#000" stroke-width="1.5"/>
  <line x1="575" y1="229.0" x2="575" y2="250" stroke="#000" stroke-width="1.5"/>
  <text x="588" y="227" text-anchor="middle" font-size="8" font-weight="normal" fill="#000">C10</text>
  <text x="588" y="239" text-anchor="middle" font-size="8" font-weight="normal" fill="#000">100nF</text>
  <line x1="575" y1="250" x2="575" y2="258" stroke="#000" stroke-width="1.5"/>
  <line x1="563" y1="258" x2="587" y2="258" stroke="#000" stroke-width="2"/>
  <line x1="567" y1="263" x2="583" y2="263" stroke="#000" stroke-width="1.5"/>
  <line x1="571" y1="268" x2="579" y2="268" stroke="#000" stroke-width="1.5"/>
  <line x1="575" y1="200" x2="545" y2="200" stroke="#000" stroke-width="1.5"/>
  <text x="543" y="197" text-anchor="end" font-size="9" font-weight="normal" fill="#000">→ ADC5</text>
  <line x1="718" y1="70" x2="718" y2="62" stroke="#000" stroke-width="1.5"/>
  <line x1="706" y1="62" x2="730" y2="62" stroke="#000" stroke-width="2"/>
  <text x="718" y="56" text-anchor="middle" font-size="9" font-weight="normal" fill="#000">+3V3</text>
  <rect x="710" y="80" width="50" height="100" fill="#f0f0ff" stroke="#000" stroke-width="1.5"/>
  <text x="735" y="118" text-anchor="middle" font-size="9" font-weight="bold" fill="#000">RV7</text>
  <text x="735" y="132" text-anchor="middle" font-size="9" font-weight="normal" fill="#000">MOD DEP</text>
  <text x="735" y="146" text-anchor="middle" font-size="8" font-weight="normal" fill="#000">10kΩ lin</text>
  <line x1="735" y1="70" x2="735" y2="80" stroke="#000" stroke-width="1.5"/>
  <line x1="735" y1="180" x2="735" y2="200" stroke="#000" stroke-width="1.5"/>
  <line x1="735" y1="200" x2="735" y2="208" stroke="#000" stroke-width="1.5"/>
  <line x1="723" y1="208" x2="747" y2="208" stroke="#000" stroke-width="2"/>
  <line x1="727" y1="213" x2="743" y2="213" stroke="#000" stroke-width="1.5"/>
  <line x1="731" y1="218" x2="739" y2="218" stroke="#000" stroke-width="1.5"/>
  <line x1="710" y1="130" x2="690" y2="130" stroke="#000" stroke-width="1.5"/>
  <line x1="690" y1="130" x2="690" y2="137.0" stroke="#000" stroke-width="1.5"/>
  <rect x="684" y="137.0" width="12" height="56.0" fill="white" stroke="#000" stroke-width="1.5"/>
  <line x1="690" y1="193.0" x2="690" y2="200" stroke="#000" stroke-width="1.5"/>
  <text x="703" y="167" text-anchor="middle" font-size="8" font-weight="normal" fill="#000">R7</text>
  <text x="703" y="179" text-anchor="middle" font-size="8" font-weight="normal" fill="#000">1kΩ</text>
  <circle cx="690" cy="200" r="3" fill="#000" stroke="#000" stroke-width="1.5"/>
  <line x1="690" y1="200" x2="690" y2="221.0" stroke="#000" stroke-width="1.5"/>
  <line x1="680" y1="221.0" x2="700" y2="221.0" stroke="#000" stroke-width="1.5"/>
  <line x1="680" y1="229.0" x2="700" y2="229.0" stroke="#000" stroke-width="1.5"/>
  <line x1="690" y1="229.0" x2="690" y2="250" stroke="#000" stroke-width="1.5"/>
  <text x="703" y="227" text-anchor="middle" font-size="8" font-weight="normal" fill="#000">C11</text>
  <text x="703" y="239" text-anchor="middle" font-size="8" font-weight="normal" fill="#000">100nF</text>
  <line x1="690" y1="250" x2="690" y2="258" stroke="#000" stroke-width="1.5"/>
  <line x1="678" y1="258" x2="702" y2="258" stroke="#000" stroke-width="2"/>
  <line x1="682" y1="263" x2="698" y2="263" stroke="#000" stroke-width="1.5"/>
  <line x1="686" y1="268" x2="694" y2="268" stroke="#000" stroke-width="1.5"/>
  <line x1="690" y1="200" x2="660" y2="200" stroke="#000" stroke-width="1.5"/>
  <text x="658" y="197" text-anchor="end" font-size="9" font-weight="normal" fill="#000">→ ADC6</text>
  <text x="20" y="340" text-anchor="start" font-size="9" font-weight="normal" fill="#555">Each pot: pin 1 = +3V3, pin 2 = wiper, pin 3 = GND.</text>
  <text x="20" y="353" text-anchor="start" font-size="9" font-weight="normal" fill="#555">1kΩ series resistor protects Daisy ADC pin from short-circuit.</text>
  <text x="20" y="366" text-anchor="start" font-size="9" font-weight="normal" fill="#555">100nF anti-alias / ESD cap from ADC node to GND.</text>
</svg>
