<svg xmlns="http://www.w3.org/2000/svg" width="820" height="540" viewBox="0 0 820 540" font-family="monospace" font-size="11">
  <title>Controls</title>
  <rect width="820" height="540" fill="white" stroke="none"/>
  <rect x="10" y="10" width="700" height="24" fill="#e8e8f0" stroke="#666" stroke-width="1.5"/>
  <text x="20" y="28" text-anchor="start" font-size="12" font-weight="bold" fill="#000">3 · Controls  (Encoder EC11 + 2× Footswitch)</text>
  <text x="200" y="65" text-anchor="middle" font-size="11" font-weight="bold" fill="#000">Rotary Encoder EC11  (D0/D1/D2)</text>
  <line x1="80" y1="90" x2="80" y2="82" stroke="#000" stroke-width="1.5"/>
  <line x1="68" y1="82" x2="92" y2="82" stroke="#000" stroke-width="2"/>
  <text x="80" y="76" text-anchor="middle" font-size="9" font-weight="normal" fill="#000">+3V3</text>
  <line x1="80" y1="90" x2="80" y2="97.0" stroke="#000" stroke-width="1.5"/>
  <rect x="74" y="97.0" width="12" height="56.0" fill="white" stroke="#000" stroke-width="1.5"/>
  <line x1="80" y1="153.0" x2="80" y2="160" stroke="#000" stroke-width="1.5"/>
  <text x="94" y="127" text-anchor="middle" font-size="9" font-weight="normal" fill="#000">R8 10kΩ</text>
  <circle cx="80" cy="160" r="3" fill="#000" stroke="#000" stroke-width="1.5"/>
  <line x1="80" y1="160" x2="80" y2="186.0" stroke="#000" stroke-width="1.5"/>
  <line x1="70" y1="186.0" x2="90" y2="186.0" stroke="#000" stroke-width="1.5"/>
  <line x1="70" y1="194.0" x2="90" y2="194.0" stroke="#000" stroke-width="1.5"/>
  <line x1="80" y1="194.0" x2="80" y2="220" stroke="#000" stroke-width="1.5"/>
  <text x="94" y="193" text-anchor="middle" font-size="9" font-weight="normal" fill="#000">C12 100nF</text>
  <line x1="80" y1="220" x2="80" y2="228" stroke="#000" stroke-width="1.5"/>
  <line x1="68" y1="228" x2="92" y2="228" stroke="#000" stroke-width="2"/>
  <line x1="72" y1="233" x2="88" y2="233" stroke="#000" stroke-width="1.5"/>
  <line x1="76" y1="238" x2="84" y2="238" stroke="#000" stroke-width="1.5"/>
  <line x1="80" y1="160" x2="68.0" y2="160" stroke="#000" stroke-width="1.5"/>
  <circle cx="68.0" cy="160" r="3" fill="#000" stroke="#000" stroke-width="1.5"/>
  <circle cx="92.0" cy="160" r="3" fill="#000" stroke="#000" stroke-width="1.5"/>
  <line x1="68.0" y1="160" x2="92.0" y2="146" stroke="#000" stroke-width="1.5"/>
  <line x1="92.0" y1="160" x2="80" y2="290" stroke="#000" stroke-width="1.5"/>
  <text x="94" y="230" text-anchor="middle" font-size="9" font-weight="normal" fill="#000">EC11 pin A</text>
  <line x1="80" y1="290" x2="80" y2="298" stroke="#000" stroke-width="1.5"/>
  <line x1="68" y1="298" x2="92" y2="298" stroke="#000" stroke-width="2"/>
  <line x1="72" y1="303" x2="88" y2="303" stroke="#000" stroke-width="1.5"/>
  <line x1="76" y1="308" x2="84" y2="308" stroke="#000" stroke-width="1.5"/>
  <line x1="80" y1="160" x2="25" y2="160" stroke="#000" stroke-width="1.5"/>
  <text x="22" y="157" text-anchor="end" font-size="9" font-weight="normal" fill="#000">→ ENC_A (D0)</text>
  <line x1="280" y1="90" x2="280" y2="82" stroke="#000" stroke-width="1.5"/>
  <line x1="268" y1="82" x2="292" y2="82" stroke="#000" stroke-width="2"/>
  <text x="280" y="76" text-anchor="middle" font-size="9" font-weight="normal" fill="#000">+3V3</text>
  <line x1="280" y1="90" x2="280" y2="97.0" stroke="#000" stroke-width="1.5"/>
  <rect x="274" y="97.0" width="12" height="56.0" fill="white" stroke="#000" stroke-width="1.5"/>
  <line x1="280" y1="153.0" x2="280" y2="160" stroke="#000" stroke-width="1.5"/>
  <text x="294" y="127" text-anchor="middle" font-size="9" font-weight="normal" fill="#000">R9 10kΩ</text>
  <circle cx="280" cy="160" r="3" fill="#000" stroke="#000" stroke-width="1.5"/>
  <line x1="280" y1="160" x2="280" y2="186.0" stroke="#000" stroke-width="1.5"/>
  <line x1="270" y1="186.0" x2="290" y2="186.0" stroke="#000" stroke-width="1.5"/>
  <line x1="270" y1="194.0" x2="290" y2="194.0" stroke="#000" stroke-width="1.5"/>
  <line x1="280" y1="194.0" x2="280" y2="220" stroke="#000" stroke-width="1.5"/>
  <text x="294" y="193" text-anchor="middle" font-size="9" font-weight="normal" fill="#000">C13 100nF</text>
  <line x1="280" y1="220" x2="280" y2="228" stroke="#000" stroke-width="1.5"/>
  <line x1="268" y1="228" x2="292" y2="228" stroke="#000" stroke-width="2"/>
  <line x1="272" y1="233" x2="288" y2="233" stroke="#000" stroke-width="1.5"/>
  <line x1="276" y1="238" x2="284" y2="238" stroke="#000" stroke-width="1.5"/>
  <line x1="280" y1="160" x2="268.0" y2="160" stroke="#000" stroke-width="1.5"/>
  <circle cx="268.0" cy="160" r="3" fill="#000" stroke="#000" stroke-width="1.5"/>
  <circle cx="292.0" cy="160" r="3" fill="#000" stroke="#000" stroke-width="1.5"/>
  <line x1="268.0" y1="160" x2="292.0" y2="146" stroke="#000" stroke-width="1.5"/>
  <line x1="292.0" y1="160" x2="280" y2="290" stroke="#000" stroke-width="1.5"/>
  <text x="294" y="230" text-anchor="middle" font-size="9" font-weight="normal" fill="#000">EC11 pin B</text>
  <line x1="280" y1="290" x2="280" y2="298" stroke="#000" stroke-width="1.5"/>
  <line x1="268" y1="298" x2="292" y2="298" stroke="#000" stroke-width="2"/>
  <line x1="272" y1="303" x2="288" y2="303" stroke="#000" stroke-width="1.5"/>
  <line x1="276" y1="308" x2="284" y2="308" stroke="#000" stroke-width="1.5"/>
  <line x1="280" y1="160" x2="225" y2="160" stroke="#000" stroke-width="1.5"/>
  <text x="222" y="157" text-anchor="end" font-size="9" font-weight="normal" fill="#000">→ ENC_B (D1)</text>
  <line x1="480" y1="90" x2="480" y2="82" stroke="#000" stroke-width="1.5"/>
  <line x1="468" y1="82" x2="492" y2="82" stroke="#000" stroke-width="2"/>
  <text x="480" y="76" text-anchor="middle" font-size="9" font-weight="normal" fill="#000">+3V3</text>
  <line x1="480" y1="90" x2="480" y2="97.0" stroke="#000" stroke-width="1.5"/>
  <rect x="474" y="97.0" width="12" height="56.0" fill="white" stroke="#000" stroke-width="1.5"/>
  <line x1="480" y1="153.0" x2="480" y2="160" stroke="#000" stroke-width="1.5"/>
  <text x="494" y="127" text-anchor="middle" font-size="9" font-weight="normal" fill="#000">R10 10kΩ</text>
  <circle cx="480" cy="160" r="3" fill="#000" stroke="#000" stroke-width="1.5"/>
  <line x1="480" y1="160" x2="480" y2="186.0" stroke="#000" stroke-width="1.5"/>
  <line x1="470" y1="186.0" x2="490" y2="186.0" stroke="#000" stroke-width="1.5"/>
  <line x1="470" y1="194.0" x2="490" y2="194.0" stroke="#000" stroke-width="1.5"/>
  <line x1="480" y1="194.0" x2="480" y2="220" stroke="#000" stroke-width="1.5"/>
  <text x="494" y="193" text-anchor="middle" font-size="9" font-weight="normal" fill="#000">C14 100nF</text>
  <line x1="480" y1="220" x2="480" y2="228" stroke="#000" stroke-width="1.5"/>
  <line x1="468" y1="228" x2="492" y2="228" stroke="#000" stroke-width="2"/>
  <line x1="472" y1="233" x2="488" y2="233" stroke="#000" stroke-width="1.5"/>
  <line x1="476" y1="238" x2="484" y2="238" stroke="#000" stroke-width="1.5"/>
  <line x1="480" y1="160" x2="468.0" y2="160" stroke="#000" stroke-width="1.5"/>
  <circle cx="468.0" cy="160" r="3" fill="#000" stroke="#000" stroke-width="1.5"/>
  <circle cx="492.0" cy="160" r="3" fill="#000" stroke="#000" stroke-width="1.5"/>
  <line x1="468.0" y1="160" x2="492.0" y2="146" stroke="#000" stroke-width="1.5"/>
  <line x1="492.0" y1="160" x2="480" y2="290" stroke="#000" stroke-width="1.5"/>
  <text x="494" y="230" text-anchor="middle" font-size="9" font-weight="normal" fill="#000">EC11 pin SW</text>
  <line x1="480" y1="290" x2="480" y2="298" stroke="#000" stroke-width="1.5"/>
  <line x1="468" y1="298" x2="492" y2="298" stroke="#000" stroke-width="2"/>
  <line x1="472" y1="303" x2="488" y2="303" stroke="#000" stroke-width="1.5"/>
  <line x1="476" y1="308" x2="484" y2="308" stroke="#000" stroke-width="1.5"/>
  <line x1="480" y1="160" x2="425" y2="160" stroke="#000" stroke-width="1.5"/>
  <text x="422" y="157" text-anchor="end" font-size="9" font-weight="normal" fill="#000">→ ENC_SW (D2)</text>
  <rect x="20" y="295" width="340" height="50" fill="#e8e8ff" stroke="#000" stroke-width="1.5"/>
  <text x="190" y="315" text-anchor="middle" font-size="10" font-weight="bold" fill="#000">SW1 · EC11 Rotary Encoder</text>
  <text x="190" y="332" text-anchor="middle" font-size="9" font-weight="normal" fill="#000">Alps or compatible — 20mm height, with push switch</text>
  <text x="600" y="65" text-anchor="middle" font-size="11" font-weight="bold" fill="#000">Footswitches</text>
  <line x1="500" y1="90" x2="500" y2="82" stroke="#000" stroke-width="1.5"/>
  <line x1="488" y1="82" x2="512" y2="82" stroke="#000" stroke-width="2"/>
  <text x="500" y="76" text-anchor="middle" font-size="9" font-weight="normal" fill="#000">+3V3</text>
  <line x1="500" y1="90" x2="500" y2="97.0" stroke="#000" stroke-width="1.5"/>
  <rect x="494" y="97.0" width="12" height="56.0" fill="white" stroke="#000" stroke-width="1.5"/>
  <line x1="500" y1="153.0" x2="500" y2="160" stroke="#000" stroke-width="1.5"/>
  <text x="514" y="127" text-anchor="middle" font-size="9" font-weight="normal" fill="#000">R11 10kΩ</text>
  <circle cx="500" cy="160" r="3" fill="#000" stroke="#000" stroke-width="1.5"/>
  <line x1="500" y1="160" x2="500" y2="186.0" stroke="#000" stroke-width="1.5"/>
  <line x1="490" y1="186.0" x2="510" y2="186.0" stroke="#000" stroke-width="1.5"/>
  <line x1="490" y1="194.0" x2="510" y2="194.0" stroke="#000" stroke-width="1.5"/>
  <line x1="500" y1="194.0" x2="500" y2="220" stroke="#000" stroke-width="1.5"/>
  <text x="514" y="193" text-anchor="middle" font-size="9" font-weight="normal" fill="#000">C15 100nF</text>
  <line x1="500" y1="220" x2="500" y2="228" stroke="#000" stroke-width="1.5"/>
  <line x1="488" y1="228" x2="512" y2="228" stroke="#000" stroke-width="2"/>
  <line x1="492" y1="233" x2="508" y2="233" stroke="#000" stroke-width="1.5"/>
  <line x1="496" y1="238" x2="504" y2="238" stroke="#000" stroke-width="1.5"/>
  <line x1="500" y1="160" x2="488.0" y2="160" stroke="#000" stroke-width="1.5"/>
  <circle cx="488.0" cy="160" r="3" fill="#000" stroke="#000" stroke-width="1.5"/>
  <circle cx="512.0" cy="160" r="3" fill="#000" stroke="#000" stroke-width="1.5"/>
  <line x1="488.0" y1="160" x2="512.0" y2="146" stroke="#000" stroke-width="1.5"/>
  <line x1="512.0" y1="160" x2="500" y2="290" stroke="#000" stroke-width="1.5"/>
  <text x="514" y="230" text-anchor="middle" font-size="9" font-weight="normal" fill="#000"><tspan x="514" dy="0">SW2</tspan></text>
  <text x="514" y="244" text-anchor="middle" font-size="9" font-weight="normal" fill="#000"><tspan x="514" dy="1.3em">SPST momentary</tspan></text>
  <line x1="500" y1="290" x2="500" y2="298" stroke="#000" stroke-width="1.5"/>
  <line x1="488" y1="298" x2="512" y2="298" stroke="#000" stroke-width="2"/>
  <line x1="492" y1="303" x2="508" y2="303" stroke="#000" stroke-width="1.5"/>
  <line x1="496" y1="308" x2="504" y2="308" stroke="#000" stroke-width="1.5"/>
  <line x1="500" y1="160" x2="445" y2="160" stroke="#000" stroke-width="1.5"/>
  <text x="442" y="157" text-anchor="end" font-size="9" font-weight="normal" fill="#000">→ SW_BYPASS (D3)</text>
  <text x="500" y="305" text-anchor="middle" font-size="10" font-weight="bold" fill="#000">Bypass</text>
  <line x1="710" y1="90" x2="710" y2="82" stroke="#000" stroke-width="1.5"/>
  <line x1="698" y1="82" x2="722" y2="82" stroke="#000" stroke-width="2"/>
  <text x="710" y="76" text-anchor="middle" font-size="9" font-weight="normal" fill="#000">+3V3</text>
  <line x1="710" y1="90" x2="710" y2="97.0" stroke="#000" stroke-width="1.5"/>
  <rect x="704" y="97.0" width="12" height="56.0" fill="white" stroke="#000" stroke-width="1.5"/>
  <line x1="710" y1="153.0" x2="710" y2="160" stroke="#000" stroke-width="1.5"/>
  <text x="724" y="127" text-anchor="middle" font-size="9" font-weight="normal" fill="#000">R12 10kΩ</text>
  <circle cx="710" cy="160" r="3" fill="#000" stroke="#000" stroke-width="1.5"/>
  <line x1="710" y1="160" x2="710" y2="186.0" stroke="#000" stroke-width="1.5"/>
  <line x1="700" y1="186.0" x2="720" y2="186.0" stroke="#000" stroke-width="1.5"/>
  <line x1="700" y1="194.0" x2="720" y2="194.0" stroke="#000" stroke-width="1.5"/>
  <line x1="710" y1="194.0" x2="710" y2="220" stroke="#000" stroke-width="1.5"/>
  <text x="724" y="193" text-anchor="middle" font-size="9" font-weight="normal" fill="#000">C16 100nF</text>
  <line x1="710" y1="220" x2="710" y2="228" stroke="#000" stroke-width="1.5"/>
  <line x1="698" y1="228" x2="722" y2="228" stroke="#000" stroke-width="2"/>
  <line x1="702" y1="233" x2="718" y2="233" stroke="#000" stroke-width="1.5"/>
  <line x1="706" y1="238" x2="714" y2="238" stroke="#000" stroke-width="1.5"/>
  <line x1="710" y1="160" x2="698.0" y2="160" stroke="#000" stroke-width="1.5"/>
  <circle cx="698.0" cy="160" r="3" fill="#000" stroke="#000" stroke-width="1.5"/>
  <circle cx="722.0" cy="160" r="3" fill="#000" stroke="#000" stroke-width="1.5"/>
  <line x1="698.0" y1="160" x2="722.0" y2="146" stroke="#000" stroke-width="1.5"/>
  <line x1="722.0" y1="160" x2="710" y2="290" stroke="#000" stroke-width="1.5"/>
  <text x="724" y="230" text-anchor="middle" font-size="9" font-weight="normal" fill="#000"><tspan x="724" dy="0">SW3</tspan></text>
  <text x="724" y="244" text-anchor="middle" font-size="9" font-weight="normal" fill="#000"><tspan x="724" dy="1.3em">SPST momentary</tspan></text>
  <line x1="710" y1="290" x2="710" y2="298" stroke="#000" stroke-width="1.5"/>
  <line x1="698" y1="298" x2="722" y2="298" stroke="#000" stroke-width="2"/>
  <line x1="702" y1="303" x2="718" y2="303" stroke="#000" stroke-width="1.5"/>
  <line x1="706" y1="308" x2="714" y2="308" stroke="#000" stroke-width="1.5"/>
  <line x1="710" y1="160" x2="655" y2="160" stroke="#000" stroke-width="1.5"/>
  <text x="652" y="157" text-anchor="end" font-size="9" font-weight="normal" fill="#000">→ SW_TAP (D4)</text>
  <text x="710" y="305" text-anchor="middle" font-size="10" font-weight="bold" fill="#000">Tap Tempo</text>
  <text x="20" y="380" text-anchor="start" font-size="9" font-weight="normal" fill="#555">All digital inputs use internal Daisy pull-ups (DaisySeed::ConfigureAdcChannel not needed).</text>
  <text x="20" y="393" text-anchor="start" font-size="9" font-weight="normal" fill="#555">External 10kΩ pull-ups and 100nF debounce caps added for robustness in guitar pedal environment.</text>
  <text x="20" y="406" text-anchor="start" font-size="9" font-weight="normal" fill="#555">Footswitches are standard SPST momentary types (e.g. Gorva Design or Boss-style).</text>
</svg>
